<?xml version="1.0" standalone="yes"?>
<svg xmlns="http://www.w3.org/2000/svg" width="100" height="50">
<path style="fill:#75613d; stroke:none;" d="M0 0L0 50L100 50L100 0L76 0C82.1649 13.4782 94.2942 31.8542 79 45C77.8201 48.82 74.652 48.8914 71 49L76 42L55 30L57 39L63 49L58 49L52 32L51 32C49.3916 37.7102 49.3564 46.9925 43 49L47 31C41.07 35.0548 30.2585 41.6501 29 49C3.9175 47.1079 18.6934 11.0817 25 0L0 0z"/>
<path style="fill:#ffffff; stroke:none;" d="M19 12C11.9803 16.8092 13.0981 37.4258 20 42C20.2464 47.4886 23.9784 48.8369 29 49L47 31L43 49C49.605 47.8532 49.8384 37.628 51 32L54 34C53.48 38.4112 55.2448 43.4381 59 46L58 49L63 49L57 39L55 30L63 33L68 36L76 42L71 49C74.8143 48.9549 78.1578 49.1711 79 45C83.1507 42.6382 84.6772 38.6478 84 34C86.7674 31.5757 85.7122 27.7948 85.7978 24.3349C86.0783 13.0037 80.5246 0.0443611 68 0L72 3L54 19L59 0C52.3839 1.14799 50.7912 12.3491 52 18L44 8C44.5356 3.33711 42.653 0.757343 38 0L46 20L43 20C39.8567 14.2691 31.7923 10.7076 26 8L33 1C25.6278 -2.08541 19.0056 4.72684 19 12z"/>
<path style="fill:#75613d; stroke:none;" d="M26 8L46 20C44.1917 9.82419 34.4919 -9.81992 26 8M42 0L51 17L55 0L42 0M54 19C60.3987 16.0337 68.8851 9.39275 72 3C57.8529 -4.78246 56.3711 7.51227 54 19z"/>
<path style="fill:#e0dedd; stroke:none;" d="M24 2L25 3L24 2z"/>
<path style="fill:#c6c1bf; stroke:none;" d="M79 6L80 7L79 6M44 7L45 8L44 7z"/>
<path style="fill:#75613d; stroke:none;" d="M74 7L57 24L81 21L74 7z"/>
<path style="fill:#e0dedd; stroke:none;" d="M24 10L25 11L24 10M18 11L19 12L18 11z"/>
<path style="fill:#75613d; stroke:none;" d="M23 11L19 26L44 24L23 11z"/>
<path style="fill:#e0dedd; stroke:none;" d="M29 13L30 14L29 13M61 14L62 15L61 14z"/>
<path style="fill:#918680; stroke:none;" d="M50 17L51 18L50 17z"/>
<path style="fill:#e0dedd; stroke:none;" d="M51 17L52 18L51 17M19 18L20 19L19 18M43 19L44 20L43 19M54 20L55 21L54 20z"/>
<path style="fill:#c6c1bf; stroke:none;" d="M15 22L16 23L15 22z"/>
<path style="fill:#918680; stroke:none;" d="M56 23L57 24L56 23z"/>
<path style="fill:#c6c1bf; stroke:none;" d="M85 24L86 25L85 24z"/>
<path style="fill:#e0dedd; stroke:none;" d="M18 25L19 26L18 25z"/>
<path style="fill:#75613d; stroke:none;" d="M58 26C61.6664 31.7118 72.4677 37.4657 79 39L81 25L58 26z"/>
<path style="fill:#e0dedd; stroke:none;" d="M85 27L86 28L85 27z"/>
<path style="fill:#75613d; stroke:none;" d="M20 29L25 44L28 44L44 28L20 29z"/>
<path style="fill:#918680; stroke:none;" d="M15 29L16 30L15 29M19 33L20 34L19 33z"/>
<path style="fill:#e0dedd; stroke:none;" d="M62 33L63 34L62 33M66 33L67 34L66 33z"/>
<path style="fill:#918680; stroke:none;" d="M53 34L54 35L53 34z"/>
<path style="fill:#e0dedd; stroke:none;" d="M84 34L85 35L84 34M67 36L68 37L67 36z"/>
<path style="fill:#918680; stroke:none;" d="M76 39L77 40L76 39z"/>
<path style="fill:#e0dedd; stroke:none;" d="M19 42L20 43L19 42z"/>
<path style="fill:#c6c1bf; stroke:none;" d="M28 45L29 46L28 45z"/>
<path style="fill:#e0dedd; stroke:none;" d="M58 46L59 47L58 46M74 46L75 47L74 46z"/>
</svg>
