<?xml version="1.0" standalone="yes"?>
<svg xmlns="http://www.w3.org/2000/svg" width="100" height="50">
<path style="fill:#75613d; stroke:none;" d="M0 0L0 50L100 50L100 0L0 0z"/>
<path style="fill:#999086; stroke:none;" d="M69 1L70 2L69 1z"/>
<path style="fill:#ffffff; stroke:none;" d="M64 4L64 5L68 9C64.5476 9.69379 59.6997 15.8406 65 17L65 18L18 18L20 39L25 38C25.7921 32.7387 27.7108 29.1941 32 26C29.8297 28.4423 27.8119 30.667 27.2292 34C24.6014 49.0302 47.0632 54.2349 49.7708 39C50.3106 35.9631 49.7003 32.9416 49 30L50 30C51.4499 34.0144 52.6384 35.6524 57 36C56.9508 30.0588 54.146 23.5203 61 21L57 48L64 48L65 30C71.9795 35.8448 66.5889 47.6581 77 48L74.5 33L69 19L81 20L82 19L82 17L81 16L72 17C71.8796 13.3084 71.6867 11.2226 68 10L68 9L76 5C71.5851 1.33847 69.0318 2.1002 64 4z"/>
<path style="fill:#e5e3e2; stroke:none;" d="M63 4L64 5L63 4z"/>
<path style="fill:#c1bdb8; stroke:none;" d="M66 6L67 7L66 6z"/>
<path style="fill:#e5e3e2; stroke:none;" d="M68 9L69 10L68 9M64 10L65 11L64 10z"/>
<path style="fill:#999086; stroke:none;" d="M41 16L42 17L41 16z"/>
<path style="fill:#e5e3e2; stroke:none;" d="M42 16L43 17L42 16z"/>
<path style="fill:#c1bdb8; stroke:none;" d="M76 16L77 17L76 16z"/>
<path style="fill:#e5e3e2; stroke:none;" d="M78 16L79 17L78 16z"/>
<path style="fill:#999086; stroke:none;" d="M26 17L27 18L26 17M62 17L63 18L62 17z"/>
<path style="fill:#75613d; stroke:none;" d="M63 17L64 18L63 17z"/>
<path style="fill:#c1bdb8; stroke:none;" d="M64 17L65 18L64 17M69 19L70 20L69 19z"/>
<path style="fill:#e5e3e2; stroke:none;" d="M78 19L79 20L78 19M68 20L69 21L68 20z"/>
<path style="fill:#999086; stroke:none;" d="M18 21L19 22L18 21z"/>
<path style="fill:#75613d; stroke:none;" d="M32 25L32 26C39.2768 24.6499 42.8785 26.023 49 30C45.4319 23.5006 38.5283 23.4457 32 25z"/>
<path style="fill:#c1bdb8; stroke:none;" d="M46 26L47 27L46 26z"/>
<path style="fill:#75613d; stroke:none;" d="M35 27L30 33L37 35L35 27M37 27L39 34L45 29L37 27z"/>
<path style="fill:#999086; stroke:none;" d="M56 27L57 28L56 27M37 28L38 29L37 28z"/>
<path style="fill:#e5e3e2; stroke:none;" d="M56 28L57 29L56 28z"/>
<path style="fill:#c1bdb8; stroke:none;" d="M60 30L61 31L60 30z"/>
<path style="fill:#999086; stroke:none;" d="M65 30L66 31L65 30z"/>
<path style="fill:#c1bdb8; stroke:none;" d="M73 30L74 31L73 30z"/>
<path style="fill:#75613d; stroke:none;" d="M41 37L48 39L47 31L41 37z"/>
<path style="fill:#c1bdb8; stroke:none;" d="M38 32L39 33L38 32z"/>
<path style="fill:#e5e3e2; stroke:none;" d="M47 32L48 33L47 32z"/>
<path style="fill:#999086; stroke:none;" d="M29 34L30 35L29 34z"/>
<path style="fill:#e5e3e2; stroke:none;" d="M34 34L35 35L34 34z"/>
<path style="fill:#999086; stroke:none;" d="M69 34L70 35L69 34z"/>
<path style="fill:#75613d; stroke:none;" d="M29 35L30 42L36 37L29 35z"/>
<path style="fill:#e5e3e2; stroke:none;" d="M32 35L33 36L32 35z"/>
<path style="fill:#999086; stroke:none;" d="M19 36L20 37L19 36z"/>
<path style="fill:#c1bdb8; stroke:none;" d="M26 36L27 37L26 36z"/>
<path style="fill:#75613d; stroke:none;" d="M38 36L39 37L38 36z"/>
<path style="fill:#c1bdb8; stroke:none;" d="M50 36L51 37L50 36z"/>
<path style="fill:#999086; stroke:none;" d="M50 37L51 38L50 37z"/>
<path style="fill:#e5e3e2; stroke:none;" d="M59 37L60 38L59 37M21 38L22 39L21 38z"/>
<path style="fill:#999086; stroke:none;" d="M22 38L23 39L22 38z"/>
<path style="fill:#75613d; stroke:none;" d="M40 38L41 46L48 40L40 38z"/>
<path style="fill:#e5e3e2; stroke:none;" d="M41 38L42 39L41 38z"/>
<path style="fill:#75613d; stroke:none;" d="M37 39L32 43L32 44L40 46L37 39z"/>
<path style="fill:#999086; stroke:none;" d="M35 40L36 41L35 40z"/>
<path style="fill:#e5e3e2; stroke:none;" d="M38 40L39 41L38 40z"/>
<path style="fill:#c1bdb8; stroke:none;" d="M58 40L59 41L58 40z"/>
<path style="fill:#e5e3e2; stroke:none;" d="M74 40L75 41L74 40z"/>
<path style="fill:#c1bdb8; stroke:none;" d="M49 41L50 42L49 41M74 41L75 42L74 41M30 42L31 43L30 42z"/>
<path style="fill:#e5e3e2; stroke:none;" d="M46 42L47 43L46 42z"/>
<path style="fill:#999086; stroke:none;" d="M74 42L75 43L74 42z"/>
<path style="fill:#c1bdb8; stroke:none;" d="M29 44L30 45L29 44z"/>
<path style="fill:#999086; stroke:none;" d="M32 44L33 45L32 44M39 44L40 45L39 44z"/>
<path style="fill:#c1bdb8; stroke:none;" d="M44 44L45 45L44 44z"/>
<path style="fill:#e5e3e2; stroke:none;" d="M47 44L48 45L47 44M74 44L75 45L74 44M30 45L31 46L30 45M46 45L47 46L46 45M38 46L39 47L38 46z"/>
<path style="fill:#c1bdb8; stroke:none;" d="M43 47L44 48L43 47M36 48L37 49L36 48z"/>
<path style="fill:#999086; stroke:none;" d="M40 48L41 49L40 48z"/>
</svg>
